<svg xmlns="http://www.w3.org/2000/svg" viewBox="0 0 960 540">

  <defs>
    <marker id="arrow" markerWidth="9" markerHeight="7" refX="8" refY="3.5" orient="auto" markerUnits="strokeWidth">
      <path d="M0,0 L9,3.5 L0,7 Z" fill="#2563eb"/>
    </marker>
    <marker id="arrow-muted" markerWidth="9" markerHeight="7" refX="8" refY="3.5" orient="auto" markerUnits="strokeWidth">
      <path d="M0,0 L9,3.5 L0,7 Z" fill="#94a3b8"/>
    </marker>
    <style><![CDATA[
      text { font-family: system-ui, -apple-system, BlinkMacSystemFont, "Segoe UI", sans-serif; }
      .title { font-size: 22px; font-weight: 800; fill: #0f172a; }
      .label { font-size: 13px; font-weight: 750; }
      .small { font-size: 11px; }
      .tiny { font-size: 10px; }
      .muted { fill: #64748b; }
      .box { stroke-width: 1.2; }
      .soft { fill: #ffffff; stroke: #cbd5e1; stroke-width: 1.1; }
      .lane-title { font-size: 13px; font-weight: 800; fill: #334155; }
    ]]></style>
  </defs>

  <rect width="960" height="540" rx="16" fill="#f8fafc" stroke="#dbeafe" stroke-width="1.4"/>
  <text x="480" y="34" text-anchor="middle" class="title">ActionLifecycle：每个动作恰好一个终态</text>
  <rect x="44" y="92" width="132" height="54" rx="10" fill="#f1f5f9" stroke="#cbd5e1" class="box" />
  <text x="110.0" y="116" text-anchor="middle" font-size="12" fill="#334155" font-weight="800">ActionCoord</text>
  <text x="110.0" y="137" text-anchor="middle" font-size="11" fill="#334155">窗口 / 意图 / 动作</text>
  <line x1="176" y1="119" x2="216" y2="119" stroke="#2563eb" stroke-width="2" marker-end="url(#arrow)"/>
  <rect x="216" y="92" width="132" height="54" rx="10" fill="#dbeafe" stroke="#93c5fd" class="box" />
  <text x="282.0" y="116" text-anchor="middle" font-size="12" fill="#1e40af" font-weight="800">Proposed</text>
  <text x="282.0" y="137" text-anchor="middle" font-size="11" fill="#1e40af">新建审计记录</text>
  <line x1="348" y1="119" x2="388" y2="119" stroke="#2563eb" stroke-width="2" marker-end="url(#arrow)"/>
  <rect x="388" y="92" width="132" height="54" rx="10" fill="#dbeafe" stroke="#93c5fd" class="box" />
  <text x="454.0" y="116" text-anchor="middle" font-size="12" fill="#1e40af" font-weight="800">SchemaValidated</text>
  <text x="454.0" y="137" text-anchor="middle" font-size="11" fill="#1e40af">目标非空</text>
  <text x="454.0" y="152" text-anchor="middle" font-size="11" fill="#1e40af">风险字段合法</text>
  <line x1="520" y1="119" x2="560" y2="119" stroke="#2563eb" stroke-width="2" marker-end="url(#arrow)"/>
  <rect x="560" y="92" width="132" height="54" rx="10" fill="#dcfce7" stroke="#86efac" class="box" />
  <text x="626.0" y="116" text-anchor="middle" font-size="12" fill="#166534" font-weight="800">PolicyChecked</text>
  <text x="626.0" y="137" text-anchor="middle" font-size="11" fill="#166534">授权或拒绝</text>
  <text x="626.0" y="152" text-anchor="middle" font-size="11" fill="#166534">只有这里 seal</text>
  <line x1="692" y1="119" x2="732" y2="119" stroke="#2563eb" stroke-width="2" marker-end="url(#arrow)"/>
  <rect x="732" y="92" width="132" height="54" rx="10" fill="#cffafe" stroke="#67e8f9" class="box" />
  <text x="798.0" y="116" text-anchor="middle" font-size="12" fill="#0e7490" font-weight="800">Dispatched</text>
  <text x="798.0" y="137" text-anchor="middle" font-size="11" fill="#0e7490">适配器 execute</text>
  <line x1="798" y1="146" x2="798" y2="196" stroke="#2563eb" stroke-width="2" marker-end="url(#arrow)"/>
  <rect x="702" y="196" width="116" height="44" rx="10" fill="#dcfce7" stroke="#86efac" class="box" />
  <text x="760.0" y="220" text-anchor="middle" font-size="12" fill="#166534" font-weight="800">Succeeded</text>
  <text x="760.0" y="241" text-anchor="middle" font-size="11" fill="#166534">成功终态</text>
  <rect x="832" y="196" width="90" height="44" rx="10" fill="#ffe4e6" stroke="#fda4af" class="box" />
  <text x="877.0" y="220" text-anchor="middle" font-size="12" fill="#9f1239" font-weight="800">Failed</text>
  <text x="877.0" y="241" text-anchor="middle" font-size="11" fill="#9f1239">失败终态</text>
  <line x1="798" y1="240" x2="798" y2="292" stroke="#2563eb" stroke-width="2" marker-end="url(#arrow)"/>
  <line x1="877" y1="240" x2="877" y2="292" stroke="#2563eb" stroke-width="2" marker-end="url(#arrow)"/>
  <path d="M454,146 L454,196 L226,196" fill="none" stroke="#94a3b8" stroke-width="2" marker-end="url(#arrow-muted)"/>
  <rect x="166" y="196" width="120" height="44" rx="10" fill="#ffe4e6" stroke="#fda4af" class="box" />
  <text x="226.0" y="220" text-anchor="middle" font-size="12" fill="#9f1239" font-weight="800">InvalidSchema</text>
  <text x="226.0" y="241" text-anchor="middle" font-size="11" fill="#9f1239">拒绝终态</text>
  <path d="M626,146 L626,196 L482,196" fill="none" stroke="#94a3b8" stroke-width="2" marker-end="url(#arrow-muted)"/>
  <rect x="422" y="196" width="120" height="44" rx="10" fill="#ffe4e6" stroke="#fda4af" class="box" />
  <text x="482.0" y="220" text-anchor="middle" font-size="12" fill="#9f1239" font-weight="800">DeniedByPolicy</text>
  <text x="482.0" y="241" text-anchor="middle" font-size="11" fill="#9f1239">拒绝终态</text>
  <path d="M626,146 L626,258 L552,258" fill="none" stroke="#94a3b8" stroke-width="2" marker-end="url(#arrow-muted)"/>
  <rect x="422" y="252" width="130" height="44" rx="10" fill="#ffe4e6" stroke="#fda4af" class="box" />
  <text x="487.0" y="276" text-anchor="middle" font-size="12" fill="#9f1239" font-weight="800">CapabilityDenied</text>
  <text x="487.0" y="297" text-anchor="middle" font-size="11" fill="#9f1239">拒绝终态</text>
  <rect x="60" y="334" width="840" height="70" rx="14" fill="#ffffff" stroke="#e2e8f0" stroke-width="1.2"/>
  <text x="78" y="358" text-anchor="start" font-size="13" fill="#334155" font-weight="800">拒绝原因枚举</text>
  <rect x="86" y="372" width="96" height="28" rx="7" fill="#ffe4e6" stroke="#fda4af" class="box" />
  <text x="134.0" y="391" text-anchor="middle" font-size="11" fill="#9f1239" font-weight="700">风险能力</text>
  <rect x="192" y="372" width="96" height="28" rx="7" fill="#ffe4e6" stroke="#fda4af" class="box" />
  <text x="240.0" y="391" text-anchor="middle" font-size="11" fill="#9f1239" font-weight="700">风险配置</text>
  <rect x="298" y="372" width="96" height="28" rx="7" fill="#ffe4e6" stroke="#fda4af" class="box" />
  <text x="346.0" y="391" text-anchor="middle" font-size="11" fill="#9f1239" font-weight="700">置信度</text>
  <rect x="404" y="372" width="96" height="28" rx="7" fill="#ffe4e6" stroke="#fda4af" class="box" />
  <text x="452.0" y="391" text-anchor="middle" font-size="11" fill="#9f1239" font-weight="700">动作阻止</text>
  <rect x="510" y="372" width="96" height="28" rx="7" fill="#ffe4e6" stroke="#fda4af" class="box" />
  <text x="558.0" y="391" text-anchor="middle" font-size="11" fill="#9f1239" font-weight="700">延迟拒绝</text>
  <rect x="616" y="372" width="106" height="28" rx="7" fill="#ffe4e6" stroke="#fda4af" class="box" />
  <text x="669.0" y="391" text-anchor="middle" font-size="11" fill="#9f1239" font-weight="700">能力拒绝</text>
  <rect x="732" y="372" width="106" height="28" rx="7" fill="#ffe4e6" stroke="#fda4af" class="box" />
  <text x="785.0" y="391" text-anchor="middle" font-size="11" fill="#9f1239" font-weight="700">目标缺失</text>
  <rect x="848" y="372" width="38" height="28" rx="7" fill="#ffe4e6" stroke="#fda4af" class="box" />
  <text x="867.0" y="391" text-anchor="middle" font-size="11" fill="#9f1239" font-weight="700">超限</text>
  <rect x="208" y="452" width="544" height="52" rx="10" fill="#ede9fe" stroke="#c4b5fd" class="box" />
  <text x="480.0" y="476" text-anchor="middle" font-size="13" fill="#5b21b6" font-weight="800">AuditRecord</text>
  <text x="480.0" y="497" text-anchor="middle" font-size="11" fill="#5b21b6">坐标、迁移路径、终态、执行结果、拒绝原因、路由、来源层级；确定性可比较</text>
  <path d="M798,292 L798,318 L480,318 L480,452" fill="none" stroke="#94a3b8" stroke-width="2" marker-end="url(#arrow-muted)"/>
  <path d="M226,240 L226,318 L480,318" fill="none" stroke="#94a3b8" stroke-width="2" marker-end="url(#arrow-muted)"/>
  <path d="M482,240 L482,318" fill="none" stroke="#94a3b8" stroke-width="2" marker-end="url(#arrow-muted)"/>
  <path d="M552,296 L552,318" fill="none" stroke="#94a3b8" stroke-width="2" marker-end="url(#arrow-muted)"/>
</svg>
