<svg xmlns="http://www.w3.org/2000/svg" viewBox="0 0 960 540">

  <defs>
    <marker id="arrow" markerWidth="9" markerHeight="7" refX="8" refY="3.5" orient="auto" markerUnits="strokeWidth">
      <path d="M0,0 L9,3.5 L0,7 Z" fill="#2563eb"/>
    </marker>
    <marker id="arrow-muted" markerWidth="9" markerHeight="7" refX="8" refY="3.5" orient="auto" markerUnits="strokeWidth">
      <path d="M0,0 L9,3.5 L0,7 Z" fill="#94a3b8"/>
    </marker>
    <style><![CDATA[
      text { font-family: system-ui, -apple-system, BlinkMacSystemFont, "Segoe UI", sans-serif; }
      .title { font-size: 22px; font-weight: 800; fill: #0f172a; }
      .label { font-size: 13px; font-weight: 750; }
      .small { font-size: 11px; }
      .tiny { font-size: 10px; }
      .muted { fill: #64748b; }
      .box { stroke-width: 1.2; }
      .soft { fill: #ffffff; stroke: #cbd5e1; stroke-width: 1.1; }
      .lane-title { font-size: 13px; font-weight: 800; fill: #334155; }
    ]]></style>
  </defs>

  <rect width="960" height="540" rx="16" fill="#f8fafc" stroke="#dbeafe" stroke-width="1.4"/>
  <text x="480" y="34" text-anchor="middle" class="title">案例输入：本地事件如何进入系统</text>
  <text x="42" y="98" text-anchor="start" font-size="13" fill="#1e40af" font-weight="800">L0 数据源</text>
  <rect x="164" y="70" width="124" height="42" rx="10" fill="#cffafe" stroke="#67e8f9" class="box" />
  <text x="226.0" y="94" text-anchor="middle" font-size="11" fill="#0e7490" font-weight="800">Android 采集器</text>
  <line x1="288" y1="91" x2="314" y2="91" stroke="#94a3b8" stroke-width="2" marker-end="url(#arrow-muted)"/>
  <rect x="314" y="70" width="124" height="42" rx="10" fill="#cffafe" stroke="#67e8f9" class="box" />
  <text x="376.0" y="94" text-anchor="middle" font-size="11" fill="#0e7490" font-weight="800">进程读取器</text>
  <line x1="438" y1="91" x2="464" y2="91" stroke="#94a3b8" stroke-width="2" marker-end="url(#arrow-muted)"/>
  <rect x="464" y="70" width="124" height="42" rx="10" fill="#cffafe" stroke="#67e8f9" class="box" />
  <text x="526.0" y="94" text-anchor="middle" font-size="11" fill="#0e7490" font-weight="800">系统状态</text>
  <line x1="588" y1="91" x2="614" y2="91" stroke="#94a3b8" stroke-width="2" marker-end="url(#arrow-muted)"/>
  <rect x="614" y="70" width="124" height="42" rx="10" fill="#cffafe" stroke="#67e8f9" class="box" />
  <text x="676.0" y="94" text-anchor="middle" font-size="11" fill="#0e7490" font-weight="800">Binder / 文件监控</text>
  <line x1="738" y1="91" x2="764" y2="91" stroke="#94a3b8" stroke-width="2" marker-end="url(#arrow-muted)"/>
  <rect x="764" y="70" width="124" height="42" rx="10" fill="#cffafe" stroke="#67e8f9" class="box" />
  <text x="826.0" y="94" text-anchor="middle" font-size="11" fill="#0e7490" font-weight="800">原始事件 + 来源层级</text>
  <line x1="464" y1="112" x2="464" y2="136" stroke="#2563eb" stroke-width="2" marker-end="url(#arrow)"/>
  <text x="42" y="168" text-anchor="start" font-size="13" fill="#1e40af" font-weight="800">L1 采集入口</text>
  <rect x="164" y="140" width="124" height="42" rx="10" fill="#dbeafe" stroke="#93c5fd" class="box" />
  <text x="226.0" y="164" text-anchor="middle" font-size="11" fill="#1e40af" font-weight="800">CollectorEnvelope</text>
  <line x1="288" y1="161" x2="314" y2="161" stroke="#94a3b8" stroke-width="2" marker-end="url(#arrow-muted)"/>
  <rect x="314" y="140" width="124" height="42" rx="10" fill="#dbeafe" stroke="#93c5fd" class="box" />
  <text x="376.0" y="164" text-anchor="middle" font-size="11" fill="#1e40af" font-weight="800">模式校验</text>
  <line x1="438" y1="161" x2="464" y2="161" stroke="#94a3b8" stroke-width="2" marker-end="url(#arrow-muted)"/>
  <rect x="464" y="140" width="124" height="42" rx="10" fill="#dbeafe" stroke="#93c5fd" class="box" />
  <text x="526.0" y="164" text-anchor="middle" font-size="11" fill="#1e40af" font-weight="800">IngestedRawEvent</text>
  <line x1="588" y1="161" x2="614" y2="161" stroke="#94a3b8" stroke-width="2" marker-end="url(#arrow-muted)"/>
  <rect x="614" y="140" width="124" height="42" rx="10" fill="#dbeafe" stroke="#93c5fd" class="box" />
  <text x="676.0" y="164" text-anchor="middle" font-size="11" fill="#1e40af" font-weight="800">raw_events channel</text>
  <line x1="464" y1="182" x2="464" y2="206" stroke="#2563eb" stroke-width="2" marker-end="url(#arrow)"/>
  <text x="42" y="238" text-anchor="start" font-size="13" fill="#1e40af" font-weight="800">L2 隐私边界</text>
  <rect x="164" y="210" width="124" height="42" rx="10" fill="#ffe4e6" stroke="#fda4af" class="box" />
  <text x="226.0" y="234" text-anchor="middle" font-size="11" fill="#9f1239" font-weight="800">RawEvent</text>
  <line x1="288" y1="231" x2="314" y2="231" stroke="#94a3b8" stroke-width="2" marker-end="url(#arrow-muted)"/>
  <rect x="314" y="210" width="124" height="42" rx="10" fill="#ffe4e6" stroke="#fda4af" class="box" />
  <text x="376.0" y="234" text-anchor="middle" font-size="11" fill="#9f1239" font-weight="800">PrivacyAirGap</text>
  <line x1="438" y1="231" x2="464" y2="231" stroke="#94a3b8" stroke-width="2" marker-end="url(#arrow-muted)"/>
  <rect x="464" y="210" width="124" height="42" rx="10" fill="#ffe4e6" stroke="#fda4af" class="box" />
  <text x="526.0" y="234" text-anchor="middle" font-size="11" fill="#9f1239" font-weight="800">SanitizedEvent</text>
  <line x1="588" y1="231" x2="614" y2="231" stroke="#94a3b8" stroke-width="2" marker-end="url(#arrow-muted)"/>
  <rect x="614" y="210" width="124" height="42" rx="10" fill="#ffe4e6" stroke="#fda4af" class="box" />
  <text x="676.0" y="234" text-anchor="middle" font-size="11" fill="#9f1239" font-weight="800">敏感字段丢弃</text>
  <line x1="464" y1="252" x2="464" y2="276" stroke="#2563eb" stroke-width="2" marker-end="url(#arrow)"/>
  <text x="42" y="308" text-anchor="start" font-size="13" fill="#1e40af" font-weight="800">L3 上下文</text>
  <rect x="164" y="280" width="124" height="42" rx="10" fill="#dcfce7" stroke="#86efac" class="box" />
  <text x="226.0" y="304" text-anchor="middle" font-size="11" fill="#166534" font-weight="800">10s Window</text>
  <line x1="288" y1="301" x2="314" y2="301" stroke="#94a3b8" stroke-width="2" marker-end="url(#arrow-muted)"/>
  <rect x="314" y="280" width="124" height="42" rx="10" fill="#dcfce7" stroke="#86efac" class="box" />
  <text x="376.0" y="304" text-anchor="middle" font-size="11" fill="#166534" font-weight="800">StructuredContext</text>
  <line x1="438" y1="301" x2="464" y2="301" stroke="#94a3b8" stroke-width="2" marker-end="url(#arrow-muted)"/>
  <rect x="464" y="280" width="124" height="42" rx="10" fill="#dcfce7" stroke="#86efac" class="box" />
  <text x="526.0" y="304" text-anchor="middle" font-size="11" fill="#166534" font-weight="800">Profile Summary</text>
  <line x1="588" y1="301" x2="614" y2="301" stroke="#94a3b8" stroke-width="2" marker-end="url(#arrow-muted)"/>
  <rect x="614" y="280" width="124" height="42" rx="10" fill="#dcfce7" stroke="#86efac" class="box" />
  <text x="676.0" y="304" text-anchor="middle" font-size="11" fill="#166534" font-weight="800">近期反馈</text>
  <line x1="464" y1="322" x2="464" y2="346" stroke="#2563eb" stroke-width="2" marker-end="url(#arrow)"/>
  <text x="42" y="378" text-anchor="start" font-size="13" fill="#1e40af" font-weight="800">L4 决策</text>
  <rect x="164" y="350" width="124" height="42" rx="10" fill="#fef3c7" stroke="#fbbf24" class="box" />
  <text x="226.0" y="374" text-anchor="middle" font-size="11" fill="#92400e" font-weight="800">Rule / Local / Cloud / Fallback</text>
  <line x1="288" y1="371" x2="314" y2="371" stroke="#94a3b8" stroke-width="2" marker-end="url(#arrow-muted)"/>
  <rect x="314" y="350" width="124" height="42" rx="10" fill="#fef3c7" stroke="#fbbf24" class="box" />
  <text x="376.0" y="374" text-anchor="middle" font-size="11" fill="#92400e" font-weight="800">IntentBatch</text>
  <line x1="438" y1="371" x2="464" y2="371" stroke="#94a3b8" stroke-width="2" marker-end="url(#arrow-muted)"/>
  <rect x="464" y="350" width="124" height="42" rx="10" fill="#fef3c7" stroke="#fbbf24" class="box" />
  <text x="526.0" y="374" text-anchor="middle" font-size="11" fill="#92400e" font-weight="800">PolicyEngine</text>
  <line x1="588" y1="371" x2="614" y2="371" stroke="#94a3b8" stroke-width="2" marker-end="url(#arrow-muted)"/>
  <rect x="614" y="350" width="124" height="42" rx="10" fill="#fef3c7" stroke="#fbbf24" class="box" />
  <text x="676.0" y="374" text-anchor="middle" font-size="11" fill="#92400e" font-weight="800">Approved / Denied</text>
  <line x1="464" y1="392" x2="464" y2="416" stroke="#2563eb" stroke-width="2" marker-end="url(#arrow)"/>
  <text x="42" y="448" text-anchor="start" font-size="13" fill="#1e40af" font-weight="800">L5 证据</text>
  <rect x="164" y="420" width="124" height="42" rx="10" fill="#ede9fe" stroke="#c4b5fd" class="box" />
  <text x="226.0" y="444" text-anchor="middle" font-size="11" fill="#5b21b6" font-weight="800">ActionLifecycle</text>
  <line x1="288" y1="441" x2="314" y2="441" stroke="#94a3b8" stroke-width="2" marker-end="url(#arrow-muted)"/>
  <rect x="314" y="420" width="124" height="42" rx="10" fill="#ede9fe" stroke="#c4b5fd" class="box" />
  <text x="376.0" y="444" text-anchor="middle" font-size="11" fill="#5b21b6" font-weight="800">Adapter 终态</text>
  <line x1="438" y1="441" x2="464" y2="441" stroke="#94a3b8" stroke-width="2" marker-end="url(#arrow-muted)"/>
  <rect x="464" y="420" width="124" height="42" rx="10" fill="#ede9fe" stroke="#c4b5fd" class="box" />
  <text x="526.0" y="444" text-anchor="middle" font-size="11" fill="#5b21b6" font-weight="800">AuditRecord</text>
  <line x1="588" y1="441" x2="614" y2="441" stroke="#94a3b8" stroke-width="2" marker-end="url(#arrow-muted)"/>
  <rect x="614" y="420" width="124" height="42" rx="10" fill="#ede9fe" stroke="#c4b5fd" class="box" />
  <text x="676.0" y="444" text-anchor="middle" font-size="11" fill="#5b21b6" font-weight="800">sha256 审计哈希</text>
  <text x="480" y="510" text-anchor="middle" font-size="13" fill="#334155" font-weight="800">同一份 emulator trace 可在线处理、离线 replay、生成审计哈希并进入回归测试</text>
</svg>
