<svg xmlns="http://www.w3.org/2000/svg" viewBox="0 0 900 340" font-family="system-ui, -apple-system, sans-serif">
  <defs>
    <marker id="arrow" markerWidth="8" markerHeight="6" refX="8" refY="3" orient="auto">
      <path d="M0,0 L8,3 L0,6 Z" fill="#0284c7"/>
    </marker>
  </defs>

  <rect width="900" height="340" rx="12" fill="#f8fafc" stroke="#bae6fd" stroke-width="1.5"/>

  <!-- Left: Android device -->
  <rect x="20" y="20" width="180" height="300" rx="10" fill="#f0f9ff" stroke="#bae6fd" stroke-width="1.5"/>
  <text x="110" y="48" text-anchor="middle" font-size="13" font-weight="700" fill="#0369a1">Android и®ҫеӨҮ</text>

  <!-- actions.jsonl file -->
  <rect x="38" y="62" width="144" height="50" rx="6" fill="#fefce8" stroke="#fde047" stroke-width="1"/>
  <text x="110" y="83" text-anchor="middle" font-size="11" font-weight="600" fill="#854d0e">actions.jsonl</text>
  <text x="110" y="100" text-anchor="middle" font-size="9" fill="#a16207">д»…иҝҪеҠ  В· app з§Ғжңүзӣ®еҪ•</text>

  <line x1="110" y1="112" x2="110" y2="132" stroke="#0284c7" stroke-width="1.5" marker-end="url(#arrow)"/>

  <!-- Android Collector process -->
  <rect x="38" y="138" width="144" height="60" rx="6" fill="#e0f2fe" stroke="#7dd3fc" stroke-width="1"/>
  <text x="110" y="158" text-anchor="middle" font-size="11" font-weight="700" fill="#075985">Android йҮҮйӣҶеҷЁ</text>
  <text x="110" y="174" text-anchor="middle" font-size="8.5" fill="#0e7490">UsageStatsManager</text>
  <text x="110" y="188" text-anchor="middle" font-size="8.5" fill="#0e7490">йҖҡзҹҘListener</text>

  <!-- Data sources list -->
  <rect x="38" y="210" width="144" height="95" rx="6" fill="#f8fafc" stroke="#e2e8f0" stroke-width="0.8"/>
  <text x="110" y="228" text-anchor="middle" font-size="9" font-weight="600" fill="#64748b">ж•°жҚ®жәҗ</text>
  <text x="52" y="246" font-size="8.5" fill="#475569">вҖў еүҚеҸ°еә”з”ЁеҸҳеҢ–</text>
  <text x="52" y="262" font-size="8.5" fill="#475569">вҖў йҖҡзҹҘеҸ‘еёғ/дәӨдә’</text>
  <text x="52" y="278" font-size="8.5" fill="#475569">вҖў з”өйҮҸ/зҪ‘з»ң/еұҸе№•</text>

  <!-- Arrow from device to Rust -->
  <line x1="200" y1="110" x2="245" y2="110" stroke="#0284c7" stroke-width="2" marker-end="url(#arrow)"/>
  <text x="222" y="102" text-anchor="middle" font-size="8" fill="#0e7490">иҝҪиёӘ</text>

  <!-- Center: Rust side -->
  <rect x="255" y="20" width="400" height="300" rx="10" fill="#f8fafc" stroke="#cbd5e1" stroke-width="1.5"/>
  <text x="455" y="48" text-anchor="middle" font-size="13" font-weight="700" fill="#0369a1">Rust е…ҘеҸЈеұӮ</text>

  <!-- AndroidJsonlTailer -->
  <rect x="275" y="62" width="165" height="54" rx="6" fill="#dbeafe" stroke="#93c5fd" stroke-width="1"/>
  <text x="357" y="83" text-anchor="middle" font-size="11" font-weight="700" fill="#1e40af">Android JSONL иҝҪиёӘеҷЁ</text>
  <text x="357" y="99" text-anchor="middle" font-size="8.5" fill="#1d4ed8">иҪ®иҜў JSONLпјҢз»ҙжҠӨ offset</text>
  <text x="357" y="112" text-anchor="middle" font-size="8.5" fill="#1d4ed8">еӨ„зҗҶжҲӘж–ӯ/иҪ®иҪ¬/еҚҠиЎҢ</text>

  <line x1="357" y1="116" x2="357" y2="140" stroke="#0284c7" stroke-width="1.5" marker-end="url(#arrow)"/>

  <!-- CollectorEnvelope -->
  <rect x="275" y="145" width="165" height="40" rx="6" fill="#fefce8" stroke="#fde047" stroke-width="1"/>
  <text x="357" y="163" text-anchor="middle" font-size="10" font-weight="700" fill="#854d0e">йҮҮйӣҶдҝЎе°Ғ</text>
  <text x="357" y="179" text-anchor="middle" font-size="8.5" fill="#a16207">жЁЎејҸзүҲжң¬ + жқҘжәҗеұӮзә§ + еҺҹе§ӢдәӢд»¶</text>

  <line x1="357" y1="185" x2="357" y2="208" stroke="#0284c7" stroke-width="1.5" marker-end="url(#arrow)"/>

  <!-- RustCollectorIngress -->
  <rect x="275" y="213" width="165" height="54" rx="6" fill="#dbeafe" stroke="#60a5fa" stroke-width="1.2"/>
  <text x="357" y="234" text-anchor="middle" font-size="11" font-weight="700" fill="#1e40af">Rust йҮҮйӣҶе…ҘеҸЈ</text>
  <text x="357" y="250" text-anchor="middle" font-size="8.5" fill="#1d4ed8">.accept(CollectorEnvelope)</text>
  <text x="357" y="263" text-anchor="middle" font-size="8.5" fill="#1d4ed8">вҶ’ IngestedRawEvent</text>

  <!-- Daemon-side collectors (right side of center) -->
  <rect x="465" y="62" width="170" height="54" rx="6" fill="#e0f2fe" stroke="#7dd3fc" stroke-width="1"/>
  <text x="550" y="82" text-anchor="middle" font-size="10" font-weight="700" fill="#075985">е®ҲжҠӨиҝӣзЁӢ дҫ§йҮҮйӣҶеҷЁ</text>
  <text x="550" y="98" text-anchor="middle" font-size="8.5" fill="#0e7490">иҝӣзЁӢиҜ»еҸ–еҷЁ / Binder жҺўй’Ҳ</text>
  <text x="550" y="112" text-anchor="middle" font-size="8.5" fill="#0e7490">зі»з»ҹзҠ¶жҖҒйҮҮйӣҶеҷЁ</text>

  <line x1="550" y1="116" x2="550" y2="140" stroke="#0284c7" stroke-width="1.5" marker-end="url(#arrow)"/>

  <!-- accept_internal -->
  <rect x="465" y="145" width="170" height="40" rx="6" fill="#f0fdf4" stroke="#86efac" stroke-width="1"/>
  <text x="550" y="163" text-anchor="middle" font-size="10" font-weight="700" fill="#166534">Rust йҮҮйӣҶе…ҘеҸЈ</text>
  <text x="550" y="179" text-anchor="middle" font-size="8.5" fill="#15803d">.accept_internal(RawEvent)</text>

  <line x1="550" y1="185" x2="550" y2="208" stroke="#0284c7" stroke-width="1.5" marker-end="url(#arrow)"/>

  <!-- SourceTier labels -->
  <rect x="465" y="213" width="80" height="28" rx="4" fill="#dbeafe" stroke="#93c5fd" stroke-width="0.8"/>
  <text x="505" y="231" text-anchor="middle" font-size="9" font-weight="600" fill="#1e40af">е…¬ејҖжҺҘеҸЈ</text>

  <rect x="555" y="213" width="80" height="28" rx="4" fill="#f0fdf4" stroke="#86efac" stroke-width="0.8"/>
  <text x="595" y="231" text-anchor="middle" font-size="9" font-weight="600" fill="#166534">е®ҲжҠӨиҝӣзЁӢ</text>

  <!-- Merge point -->
  <rect x="465" y="255" width="170" height="30" rx="6" fill="#f5f3ff" stroke="#c4b5fd" stroke-width="1"/>
  <text x="550" y="274" text-anchor="middle" font-size="10" font-weight="700" fill="#5b21b6">еҗҲе№¶ вҶ’ еҠЁдҪңжҖ»зәҝ</text>

  <!-- Right: Into core -->
  <line x1="655" y1="110" x2="710" y2="110" stroke="#0284c7" stroke-width="2" marker-end="url(#arrow)"/>

  <rect x="720" y="30" width="160" height="280" rx="10" fill="#fef2f2" stroke="#fca5a5" stroke-width="1.5"/>
  <text x="800" y="56" text-anchor="middle" font-size="12" font-weight="700" fill="#991b1b">aios-core</text>

  <rect x="735" y="72" width="130" height="36" rx="5" fill="#fff" stroke="#fca5a5" stroke-width="1"/>
  <text x="800" y="95" text-anchor="middle" font-size="10" font-weight="600" fill="#991b1b">йҡҗз§Ғж°”йҡҷ</text>

  <line x1="800" y1="108" x2="800" y2="128" stroke="#b91c1c" stroke-width="1.2" marker-end="url(#arrow)"/>

  <rect x="735" y="133" width="130" height="36" rx="5" fill="#fff" stroke="#fca5a5" stroke-width="1"/>
  <text x="800" y="156" text-anchor="middle" font-size="10" font-weight="600" fill="#991b1b">зӘ—еҸЈиҒҡеҗҲеҷЁ</text>

  <line x1="800" y1="169" x2="800" y2="190" stroke="#b91c1c" stroke-width="1.2" marker-end="url(#arrow)"/>

  <rect x="735" y="195" width="130" height="36" rx="5" fill="#fff" stroke="#fca5a5" stroke-width="1"/>
  <text x="800" y="218" text-anchor="middle" font-size="10" font-weight="600" fill="#991b1b">еҶізӯ–и·Ҝз”ұеҷЁ</text>

  <line x1="800" y1="231" x2="800" y2="252" stroke="#b91c1c" stroke-width="1.2" marker-end="url(#arrow)"/>

  <rect x="735" y="257" width="130" height="40" rx="5" fill="#fff" stroke="#fca5a5" stroke-width="1"/>
  <text x="800" y="276" text-anchor="middle" font-size="10" font-weight="600" fill="#991b1b">зӯ–з•Ҙ + з”ҹе‘Ҫе‘Ёжңҹ</text>
  <text x="800" y="290" text-anchor="middle" font-size="8.5" fill="#b91c1c">вҶ’ е®Ўи®Ўи®°еҪ•</text>

  <!-- Privacy label -->
  <text x="800" y="322" text-anchor="middle" font-size="9" font-weight="600" fill="#991b1b">еҺҹе§ӢдәӢд»¶дёҚи¶ҠиҝҮжӯӨиҫ№з•Ң</text>
</svg>
