<svg xmlns="http://www.w3.org/2000/svg" viewBox="0 0 960 540">

  <defs>
    <marker id="arrow" markerWidth="9" markerHeight="7" refX="8" refY="3.5" orient="auto" markerUnits="strokeWidth">
      <path d="M0,0 L9,3.5 L0,7 Z" fill="#2563eb"/>
    </marker>
    <marker id="arrow-muted" markerWidth="9" markerHeight="7" refX="8" refY="3.5" orient="auto" markerUnits="strokeWidth">
      <path d="M0,0 L9,3.5 L0,7 Z" fill="#94a3b8"/>
    </marker>
    <style><![CDATA[
      text { font-family: system-ui, -apple-system, BlinkMacSystemFont, "Segoe UI", sans-serif; }
      .title { font-size: 22px; font-weight: 800; fill: #0f172a; }
      .label { font-size: 13px; font-weight: 750; }
      .small { font-size: 11px; }
      .tiny { font-size: 10px; }
      .muted { fill: #64748b; }
      .box { stroke-width: 1.2; }
      .soft { fill: #ffffff; stroke: #cbd5e1; stroke-width: 1.1; }
      .lane-title { font-size: 13px; font-weight: 800; fill: #334155; }
    ]]></style>
  </defs>

  <rect width="960" height="540" rx="16" fill="#f8fafc" stroke="#dbeafe" stroke-width="1.4"/>
  <text x="480" y="34" text-anchor="middle" class="title">10 秒上下文窗口</text>
  <text x="74" y="78" text-anchor="start" font-size="12" fill="#64748b" font-weight="800">时间轴</text>
  <line x1="92" y1="92" x2="858" y2="92" stroke="#94a3b8" stroke-width="2" marker-end="url(#arrow-muted)"/>
  <text x="92" y="118" text-anchor="middle" font-size="11" fill="#64748b">t0</text>
  <text x="302" y="118" text-anchor="middle" font-size="11" fill="#64748b">t0+10s</text>
  <text x="512" y="118" text-anchor="middle" font-size="11" fill="#64748b">t0+20s</text>
  <text x="722" y="118" text-anchor="middle" font-size="11" fill="#64748b">t0+30s</text>
  <rect x="92" y="138" width="190" height="54" rx="10" fill="#cffafe" stroke="#67e8f9" class="box" />
  <text x="187.0" y="162" text-anchor="middle" font-size="12" fill="#0e7490" font-weight="800">窗口 1</text>
  <text x="187.0" y="183" text-anchor="middle" font-size="11" fill="#0e7490">应用切换 / 通知 / 系统状态</text>
  <rect x="302" y="138" width="190" height="54" rx="10" fill="#cffafe" stroke="#67e8f9" class="box" />
  <text x="397.0" y="162" text-anchor="middle" font-size="12" fill="#0e7490" font-weight="800">窗口 2</text>
  <text x="397.0" y="183" text-anchor="middle" font-size="11" fill="#0e7490">文件访问 / 应用切换 / 通知</text>
  <rect x="512" y="138" width="190" height="54" rx="10" fill="#cffafe" stroke="#67e8f9" class="box" />
  <text x="607.0" y="162" text-anchor="middle" font-size="12" fill="#0e7490" font-weight="800">窗口 3</text>
  <text x="607.0" y="183" text-anchor="middle" font-size="11" fill="#0e7490">进程状态 / 屏幕状态 / 系统</text>
  <line x1="512" y1="206" x2="512" y2="240" stroke="#2563eb" stroke-width="2" marker-end="url(#arrow)"/>
  <rect x="210" y="240" width="604" height="62" rx="10" fill="#dbeafe" stroke="#93c5fd" class="box" />
  <text x="512.0" y="264" text-anchor="middle" font-size="13" fill="#1e40af" font-weight="800">WindowAggregator.close()</text>
  <text x="512.0" y="285" text-anchor="middle" font-size="11" fill="#1e40af">将窗口内脱敏事件聚合为结构化上下文；窗口结束后才触发一次决策</text>
  <rect x="162" y="328" width="134" height="28" rx="7" fill="#dbeafe" stroke="#93c5fd" class="box" />
  <text x="229.0" y="347" text-anchor="middle" font-size="11" fill="#1e40af" font-weight="700">前台应用 [A,B]</text>
  <rect x="310" y="328" width="134" height="28" rx="7" fill="#dbeafe" stroke="#93c5fd" class="box" />
  <text x="377.0" y="347" text-anchor="middle" font-size="11" fill="#1e40af" font-weight="700">通知应用 [C,D]</text>
  <rect x="458" y="328" width="148" height="28" rx="7" fill="#dcfce7" stroke="#86efac" class="box" />
  <text x="532.0" y="347" text-anchor="middle" font-size="11" fill="#166534" font-weight="700">语义提示 [文件,链接]</text>
  <rect x="620" y="328" width="134" height="28" rx="7" fill="#cffafe" stroke="#67e8f9" class="box" />
  <text x="687.0" y="347" text-anchor="middle" font-size="11" fill="#0e7490" font-weight="700">文件活动 [.pdf]</text>
  <rect x="384" y="370" width="134" height="28" rx="7" fill="#f1f5f9" stroke="#cbd5e1" class="box" />
  <text x="451.0" y="389" text-anchor="middle" font-size="11" fill="#334155" font-weight="700">系统状态</text>
  <rect x="532" y="370" width="134" height="28" rx="7" fill="#f1f5f9" stroke="#cbd5e1" class="box" />
  <text x="599.0" y="389" text-anchor="middle" font-size="11" fill="#334155" font-weight="700">来源层级</text>
  <line x1="512" y1="402" x2="512" y2="430" stroke="#2563eb" stroke-width="2" marker-end="url(#arrow)"/>
  <rect x="252" y="430" width="456" height="54" rx="10" fill="#fef3c7" stroke="#fbbf24" class="box" />
  <text x="480.0" y="454" text-anchor="middle" font-size="13" fill="#92400e" font-weight="800">模型输入</text>
  <text x="480.0" y="475" text-anchor="middle" font-size="11" fill="#92400e">结构化上下文 + 行为画像 + 近期反馈；规则/本地后端可直接使用上下文</text>
  <path d="M432,484 L432,508 L370,508" fill="none" stroke="#94a3b8" stroke-width="2" marker-end="url(#arrow-muted)"/>
  <path d="M528,484 L528,508 L590,508" fill="none" stroke="#94a3b8" stroke-width="2" marker-end="url(#arrow-muted)"/>
  <rect x="278" y="496" width="184" height="32" rx="10" fill="#fef3c7" stroke="#fbbf24" class="box" />
  <text x="370.0" y="520" text-anchor="middle" font-size="12" fill="#92400e" font-weight="800">决策后端</text>
  <rect x="500" y="496" width="184" height="32" rx="10" fill="#dcfce7" stroke="#86efac" class="box" />
  <text x="592.0" y="520" text-anchor="middle" font-size="12" fill="#166534" font-weight="800">意图批次</text>
  <line x1="462" y1="512" x2="500" y2="512" stroke="#2563eb" stroke-width="2" marker-end="url(#arrow)"/>
</svg>
